<svg width="1101" height="482" viewBox="0 0 1101 482" fill="none" xmlns="http://www.w3.org/2000/svg">
<g clip-path="url(#clip0_344_215)">
<path fill-rule="evenodd" clip-rule="evenodd" d="M141.926 10.5986V57.4135H188.41V10.5986H141.926Z" fill="#1A0C6D"/>
<path fill-rule="evenodd" clip-rule="evenodd" d="M325.986 291.488V197.858H233.034V104.228H186.55V197.858H93.5979V10.5986H0.630249V197.858H93.5979V385.117H186.55H233.034V478.747H279.517V385.117H324.425H325.986H372.469V291.488H325.986Z" fill="#1A0C6D"/>
<path d="M433.975 234.71L432.95 226.719C446.743 221.612 449.154 214.582 450.179 200.521C451.203 189.976 451.203 175.916 451.203 164.74V79.7801C451.203 68.6045 451.203 54.5285 450.179 43.9991C449.154 29.9231 446.727 22.9245 432.95 17.8017L433.975 9.81006C447.436 10.7558 456.72 10.7558 465.327 10.7558H528.739C542.863 10.7558 553.566 10.7558 566.995 9.81006C569.407 26.0928 570.778 37.9147 571.834 55.49L561.825 57.082C557.349 45.2601 553.534 38.561 548.364 33.4224C543.194 28.2996 535.265 25.746 528.708 24.7845C520.086 23.492 512.504 23.1925 499.074 23.1925C485.645 23.1925 480.805 25.746 479.781 38.5295C478.756 48.4284 478.756 59.935 478.756 71.426V112.314C490.484 112.314 514.616 111.668 525.618 110.722C541.129 109.13 545.968 104.023 551.138 89.3165L559.429 90.9085C558.405 103.377 558.405 110.391 558.405 118.367C558.405 126.343 558.405 133.704 559.429 146.172L551.138 147.764C545.968 133.073 541.129 128.282 525.618 126.359C514.585 125.066 490.121 124.766 478.756 124.766V167.893C478.756 179.069 479.45 196.344 479.781 202.728C480.474 218.396 486.338 221.249 501.849 221.249C517.359 221.249 529.086 220.934 538.37 219.657C550.429 218.065 555.946 213.573 561.116 206.874C565.261 200.789 568.698 194.09 573.174 182.268L582.49 183.86C580.772 203.028 578.013 218.696 574.199 235.294C549.042 234.001 517.69 233.702 473.539 233.702C429.388 233.702 447.357 233.702 433.896 234.663L433.959 234.71H433.975Z" fill="#1A0C6D"/>
<path d="M623.157 134.713C627.996 122.576 629.021 116.491 629.021 113.307C629.021 110.123 627.996 110.423 626.262 110.423C622.81 110.423 615.922 115.53 600.081 132.79L593.524 127.352C613.18 100.839 627.303 88.7019 638.668 88.7019C650.032 88.7019 652.46 94.7862 652.46 104.37C652.46 113.954 646.959 128.644 641.789 141.759L619.39 200.537C615.607 210.121 614.913 212.675 614.913 213.967C614.913 215.26 616.301 217.167 618.365 217.167C622.148 217.167 629.037 213.668 645.934 191.3L652.822 195.777C634.554 228.674 618.681 237.627 606.622 237.627C594.564 237.627 591.805 231.243 591.805 222.936C591.805 214.629 594.217 208.56 602.477 187.785L623.157 134.76V134.729V134.713ZM649.701 0.872803C660.042 0.872803 667.97 8.21816 667.97 17.8018C667.97 27.3855 660.042 34.7308 649.701 34.7308C639.361 34.7308 631.433 27.3855 631.433 17.8018C631.433 8.21816 639.361 0.872803 649.701 0.872803Z" fill="#1A0C6D"/>
<path d="M781.051 31.9882C789.326 40.6261 792.416 51.4707 792.416 63.2927C792.416 94.5971 767.59 116.964 737.262 116.964C706.935 116.964 710.387 112.819 700.378 105.142C689.707 112.819 687.279 120.164 687.279 127.509C687.279 134.855 695.208 142.846 710.718 143.477L752.41 144.769C785.858 145.715 802.031 164.252 802.031 188.211C802.031 212.17 771.341 242.198 723.439 242.198C675.536 242.198 664.833 226.23 664.833 204.494C664.833 182.757 672.762 177.65 692.402 165.198C677.585 160.406 667.576 149.861 667.576 134.839C667.576 119.817 673.771 109.587 691.378 97.1507C683.449 87.2518 679.65 77.0219 679.65 63.2927C679.65 33.2492 705.501 9.62109 735.828 9.62109C766.155 9.62109 760.985 16.0049 780.641 16.0049C800.297 16.0049 801.322 15.6897 813.38 14.7124L816.138 20.1505L813.38 31.9724H780.972H781.035L781.051 31.9882ZM746.247 169.028C730.737 169.028 718.332 169.028 704.193 168.082C692.134 178.612 687.295 189.157 687.295 199.087C687.295 209.018 700.047 224.339 728.987 224.339C757.927 224.339 783.116 208.671 783.116 193.681C783.116 178.69 772.082 169.075 746.231 169.075L746.263 169.044L746.247 169.028ZM706.273 61.3539C706.273 89.4585 718.001 104.181 737.294 104.181C756.587 104.181 766.266 93.0051 766.266 64.8847C766.266 36.7642 754.207 22.4045 735.245 22.4045C716.282 22.4045 706.273 34.5417 706.273 61.3854V61.3539Z" fill="#1A0C6D"/>
<path d="M882.688 90.9877C915.774 90.9877 940.946 113.654 940.946 144.344C940.946 175.034 940.946 149.136 940.253 151.689H834.092C833.398 155.535 833.398 159.035 833.398 163.827C833.398 196.723 854.772 219.09 882.357 219.09C909.941 219.09 917.854 212.06 931.978 193.224L940.269 198.016C929.928 221.975 909.579 241.788 878.921 241.788C848.262 241.788 807.233 207.93 807.233 168.949C807.233 129.969 839.987 91.0035 882.704 91.0035V90.9719L882.688 90.9877ZM910.603 138.922C910.272 117.201 894.4 105.379 875.106 105.379C855.813 105.379 840.633 120.07 836.488 138.922H910.603Z" fill="#1A0C6D"/>
<path d="M1083.99 92.4532C1083.99 102.352 1083.99 113.528 1084.69 123.442C1085.71 136.525 1087.81 141.664 1100.53 146.456L1099.5 153.801C1087.44 152.855 1079.85 152.855 1071.93 152.855C1064.02 152.855 1056.42 152.855 1044.36 153.801L1043.34 146.456C1056.11 141.664 1057.83 136.557 1058.85 123.442C1059.88 113.543 1059.88 102.368 1059.88 92.4532V58.5952C1059.88 40.7204 1048.15 28.5517 1029.88 28.5517C1011.61 28.5517 991.261 43.5734 991.261 64.0017V92.4532C991.261 102.352 991.261 113.528 991.954 123.442C992.979 136.525 995.075 141.664 1007.8 146.456L1006.77 153.801C994.713 152.855 987.115 152.855 979.186 152.855C971.258 152.855 963.676 152.855 951.618 153.801L950.593 146.456C963.345 141.664 965.079 136.557 966.104 123.442C967.128 113.543 967.128 102.368 967.128 92.4532V84.4616C967.128 74.5627 967.128 64.3327 966.104 54.4181C965.079 41.3352 961.627 38.4506 949.206 36.1966V29.4975C965.047 22.4674 973.67 17.3603 985.728 7.13037L992.963 9.68391C991.938 19.9138 991.245 28.5517 990.898 36.5276L991.229 36.8428C1000.54 20.5601 1016.75 7.77664 1037.43 7.77664C1058.11 7.77664 1068.45 15.122 1076.74 27.5902C1081.22 34.9355 1083.98 42.9272 1083.98 55.6949V92.4374H1084.01L1083.99 92.4532Z" fill="#1A0C6D"/>
<path d="M675.505 481.111C646.565 481.111 627.271 478.558 612.454 478.558C597.638 478.558 594.879 478.558 581.449 479.519L580.409 471.528C594.186 466.405 596.597 459.375 597.638 445.299C598.678 434.753 598.678 420.677 598.678 409.486V324.415C598.678 313.224 598.678 299.148 597.638 288.603C596.597 274.527 594.186 267.497 580.409 262.374L581.449 254.382C594.879 255.344 604.195 255.344 612.801 255.344C633.813 255.344 649.67 253.736 673.093 253.736C743.047 253.736 805.404 292.118 805.404 367.92C805.404 443.722 752.678 481.143 675.505 481.143V481.111ZM673.077 466.074C736.821 466.074 773.69 430.576 773.69 368.204C773.69 305.831 729.239 268.096 670.319 268.096C611.398 268.096 628.28 270.334 627.255 283.133C626.215 293.048 626.215 304.555 626.215 316.077V412.67C626.215 423.862 626.562 441.137 627.255 447.537C628.974 463.851 637.942 466.089 673.077 466.089V466.074Z" fill="#1A0C6D"/>
<path d="M895.534 249.559H902.076L965.82 409.47C969.95 419.7 976.16 434.738 981.33 445.283C987.872 459.359 993.735 466.074 1005.1 471.512L1004.06 479.503C990.63 478.542 984.42 478.542 975.813 478.542C967.207 478.542 954.455 478.542 941.01 479.503L939.969 471.512C949.269 467.681 953.068 464.797 953.068 458.728C953.068 452.66 947.898 438.899 936.533 409.47L933.774 403.071H849.697L847.285 409.47C835.227 438.899 833.162 451.052 833.162 458.397C833.162 465.742 836.267 467.997 846.261 471.512L845.22 479.503C831.775 478.542 824.887 478.542 816.28 478.542C807.674 478.542 802.851 478.542 790.776 479.503L789.736 471.512C801.101 466.074 806.965 459.359 813.506 445.283C818.676 434.738 824.871 419.7 829.016 409.47L895.519 249.559H895.534ZM893.123 298.801L855.561 389.31H928.604L893.107 298.801H893.123Z" fill="#1A0C6D"/>
</g>
<defs>
<clipPath id="clip0_344_215">
<rect width="1100.07" height="480.443" fill="white" transform="translate(0.488281 0.77832)"/>
</clipPath>
</defs>
</svg>
